<svg width="73" height="64" viewBox="0 0 73 64" fill="none" xmlns="http://www.w3.org/2000/svg">
<path fill-rule="evenodd" clip-rule="evenodd" d="M7.56829 64C3.38844 64 0 60.6571 0 56.5333V7.46667C0 3.34294 3.38844 0 7.56829 0H27.4941C29.5485 0 31.5145 0.823909 32.9409 2.28253L37.2169 6.65534C38.2357 7.69721 39.6401 8.28571 41.1075 8.28571H57.0979C61.2777 8.28571 64.6662 11.6287 64.6662 15.7524V20.4381H65.4317C69.6116 20.4381 73 23.781 73 27.9048V56.5333C73 60.657 69.6116 64 65.4317 64H25.3473V61.8667H65.4317C68.4173 61.8667 70.8376 59.4788 70.8376 56.5333V27.9048C70.8376 24.9592 68.4173 22.5714 65.4317 22.5714H17.4069C14.4212 22.5714 12.0009 24.9592 12.0009 27.9048V61.8667H25.3473V64H7.56829ZM7.56829 2.13333C4.58268 2.13333 2.16237 4.52115 2.16237 7.46667V56.5333C2.16237 59.2513 4.22315 61.4944 6.88727 61.8248V19.0021C6.88727 16.0566 9.30759 13.6687 12.2932 13.6687H53.7386C56.7242 13.6687 59.1445 16.0566 59.1445 19.0021V20.4381H62.5038V15.7524C62.5038 12.8069 60.0835 10.419 57.0979 10.419H41.1075C39.0531 10.419 37.087 9.59514 35.6607 8.13652L31.3847 3.76371C30.3659 2.72184 28.9615 2.13333 27.4941 2.13333H7.56829Z" fill="#A6A09B"/>
</svg>
