<svg width="68" height="64" viewBox="0 0 68 64" fill="none" xmlns="http://www.w3.org/2000/svg">
<path fill-rule="evenodd" clip-rule="evenodd" d="M54.9987 1.01932C55.8123 -0.0926 57.3698 -0.331798 58.4773 0.485049C59.5849 1.3019 59.8231 2.86547 59.0095 3.97738L55.9788 8.11911C55.1651 9.23102 53.6077 9.47022 52.5001 8.65337C51.3926 7.83652 51.1543 6.27295 51.968 5.16104L54.9987 1.01932ZM57.3589 2.01341C57.0922 1.81666 56.717 1.87427 56.521 2.1421L53.4903 6.28382C53.2943 6.55164 53.3517 6.92826 53.6185 7.12501C53.8853 7.32176 54.2604 7.26415 54.4564 6.99632L57.4871 2.8546C57.6831 2.58678 57.6257 2.21016 57.3589 2.01341ZM10.1246 25.5596C10.1246 13.4142 19.9318 3.56842 32.0295 3.56842C44.1273 3.56842 53.9345 13.4142 53.9345 25.5596C53.9345 37.705 44.1273 47.5507 32.0295 47.5507C19.9318 47.5507 10.1246 37.705 10.1246 25.5596ZM32.0295 1.67197C18.8885 1.67197 8.23556 12.3668 8.23556 25.5596C8.23556 38.7523 18.8885 49.4472 32.0295 49.4472C36.3495 49.4472 40.4006 48.2914 43.8927 46.271L46.9811 49.3716C46.8928 50.6893 47.3503 52.0369 48.3535 53.0441L57.8833 62.6114C59.7276 64.4629 62.7177 64.4629 64.562 62.6114L66.6168 60.5484C68.4611 58.6969 68.4611 55.695 66.6168 53.8435L57.0871 44.2762C56.0836 43.2688 54.7408 42.8095 53.428 42.8984L50.7919 40.2519C53.9447 36.1997 55.8235 31.0999 55.8235 25.5596C55.8235 12.3668 45.1706 1.67197 32.0295 1.67197ZM51.3806 43.5248L49.5668 41.704C48.3589 43.0258 47.0046 44.2106 45.5298 45.2326L47.6048 47.3158C47.8063 46.9667 48.0559 46.6379 48.3535 46.3391L50.4084 44.2762C50.7058 43.9776 51.0331 43.7271 51.3806 43.5248ZM16.2999 25.5593C16.2999 16.838 23.3422 9.76801 32.0293 9.76801C40.7164 9.76801 47.7587 16.838 47.7587 25.5593C47.7587 34.2806 40.7164 41.3506 32.0293 41.3506C23.3422 41.3506 16.2999 34.2806 16.2999 25.5593ZM32.0293 7.87155C22.2989 7.87155 14.4108 15.7906 14.4108 25.5593C14.4108 35.328 22.2989 43.2471 32.0293 43.2471C41.7597 43.2471 49.6477 35.328 49.6477 25.5593C49.6477 15.7906 41.7597 7.87155 32.0293 7.87155ZM65.4882 10.2034C65.0704 8.88894 63.6704 8.16341 62.3611 8.58284L57.4843 10.1451C56.1751 10.5646 55.4524 11.9701 55.8702 13.2845C56.2879 14.599 57.688 15.3245 58.9972 14.9051L63.874 13.3427C65.1833 12.9233 65.906 11.5178 65.4882 10.2034ZM62.9354 10.3895C63.2507 10.2885 63.588 10.4633 63.6886 10.7799C63.7892 11.0965 63.6151 11.435 63.2998 11.536L58.423 13.0984C58.1076 13.1994 57.7704 13.0246 57.6698 12.708C57.5691 12.3914 57.7432 12.0529 58.0586 11.9518L62.9354 10.3895ZM1.79287 39.6716C0.47345 40.0576 -0.284469 41.4443 0.100012 42.7689C0.484493 44.0935 1.86578 44.8544 3.1852 44.4685L8.09986 43.0307C9.41928 42.6447 10.1772 41.258 9.79272 39.9333C9.40824 38.6087 8.02695 37.8478 6.70753 38.2338L1.79287 39.6716ZM1.9136 42.2384C1.82099 41.9193 2.00355 41.5853 2.32135 41.4923L7.23601 40.0545C7.55382 39.9616 7.88652 40.1449 7.97913 40.4639C8.07174 40.783 7.88918 41.117 7.57138 41.21L2.65672 42.6477C2.33892 42.7407 2.00621 42.5574 1.9136 42.2384ZM6.7893 52.7139C5.70271 51.8692 5.50398 50.3 6.34543 49.2092L9.47968 45.1458C10.3211 44.055 11.8841 43.8555 12.9707 44.7002C14.0573 45.545 14.256 47.1141 13.4146 48.205L10.2803 52.2683C9.43887 53.3591 7.87589 53.5587 6.7893 52.7139ZM7.83897 50.3703C7.6363 50.6331 7.68417 51.011 7.94589 51.2145C8.20761 51.418 8.58409 51.3699 8.78676 51.1072L11.921 47.0438C12.1237 46.7811 12.0758 46.4031 11.8141 46.1997C11.5524 45.9962 11.1759 46.0442 10.9732 46.307L7.83897 50.3703Z" fill="#A6A09B"/>
</svg>
