<svg width="24" height="24" viewBox="0 0 24 24" fill="none" xmlns="http://www.w3.org/2000/svg">
<path d="M4.00098 19.9995C3.45098 19.9995 2.98031 19.8038 2.58898 19.4125C2.19764 19.0212 2.00164 18.5502 2.00098 17.9995V5.99951C2.00098 5.44951 2.19698 4.97884 2.58898 4.58751C2.98098 4.19618 3.45164 4.00018 4.00098 3.99951H9.17598C9.44264 3.99951 9.69698 4.04951 9.93898 4.14951C10.181 4.24951 10.3933 4.39118 10.576 4.57451L12.001 5.99951H20.001C20.551 5.99951 21.022 6.19551 21.414 6.58751C21.806 6.97951 22.0016 7.45018 22.001 7.99951V17.9995C22.001 18.5495 21.8053 19.0205 21.414 19.4125C21.0226 19.8045 20.5516 20.0002 20.001 19.9995H4.00098Z" fill="#A6A09B"/>
</svg>
