<svg width="24" height="24" viewBox="0 0 24 24" fill="none" xmlns="http://www.w3.org/2000/svg">
<path d="M3.99902 19.0005V10.0005C3.99902 9.68382 4.07002 9.38382 4.21202 9.10049C4.35402 8.81716 4.54969 8.58382 4.79902 8.40049L10.799 3.90049C11.149 3.63382 11.549 3.50049 11.999 3.50049C12.449 3.50049 12.849 3.63382 13.199 3.90049L19.199 8.40049C19.449 8.58382 19.645 8.81716 19.787 9.10049C19.929 9.38382 19.9997 9.68382 19.999 10.0005V19.0005C19.999 19.5505 19.803 20.0215 19.411 20.4135C19.019 20.8055 18.5484 21.0012 17.999 21.0005H14.999C14.7157 21.0005 14.4784 20.9045 14.287 20.7125C14.0957 20.5205 13.9997 20.2832 13.999 20.0005V15.0005C13.999 14.7172 13.903 14.4798 13.711 14.2885C13.519 14.0972 13.2817 14.0012 12.999 14.0005H10.999C10.7157 14.0005 10.4784 14.0965 10.287 14.2885C10.0957 14.4805 9.99969 14.7178 9.99902 15.0005V20.0005C9.99902 20.2838 9.90302 20.5215 9.71102 20.7135C9.51902 20.9055 9.28169 21.0012 8.99902 21.0005H5.99902C5.44902 21.0005 4.97836 20.8048 4.58702 20.4135C4.19569 20.0222 3.99969 19.5512 3.99902 19.0005Z" fill="#A6A09B"/>
</svg>
