<svg width="28" height="28" viewBox="0 0 28 28" fill="none" xmlns="http://www.w3.org/2000/svg">
<path d="M18.7031 24.2812H21.2188C22.031 24.2812 22.8099 23.9586 23.3843 23.3843C23.9586 22.8099 24.2812 22.031 24.2812 21.2188V18.7031M24.2812 9.29688V6.78125C24.2812 5.96902 23.9586 5.19007 23.3843 4.61574C22.8099 4.04141 22.031 3.71875 21.2188 3.71875H18.7031M9.29688 24.2812H6.78125C5.96902 24.2812 5.19007 23.9586 4.61574 23.3843C4.04141 22.8099 3.71875 22.031 3.71875 21.2188V18.7031M3.71875 9.29688V6.78125C3.71875 5.96902 4.04141 5.19007 4.61574 4.61574C5.19007 4.04141 5.96902 3.71875 6.78125 3.71875H9.29688" stroke="white" stroke-width="2.33333" stroke-linecap="round" stroke-linejoin="round"/>
<circle cx="14.0003" cy="13.9998" r="5.83333" fill="white"/>
</svg>
