<svg width="24" height="24" viewBox="0 0 24 24" fill="none" xmlns="http://www.w3.org/2000/svg">
<path d="M12 2.00049C10.6739 2.00049 9.40215 2.52727 8.46447 3.46495C7.52678 4.40264 7 5.67441 7 7.00049C7 8.32657 7.52678 9.59834 8.46447 10.536C9.40215 11.4737 10.6739 12.0005 12 12.0005C13.3261 12.0005 14.5979 11.4737 15.5355 10.536C16.4732 9.59834 17 8.32657 17 7.00049C17 5.67441 16.4732 4.40264 15.5355 3.46495C14.5979 2.52727 13.3261 2.00049 12 2.00049ZM4 22.0005H20C20.55 22.0005 21 21.5505 21 21.0005V20.0005C21 16.1405 17.86 13.0005 14 13.0005H10C6.14 13.0005 3 16.1405 3 20.0005V21.0005C3 21.5505 3.45 22.0005 4 22.0005Z" fill="#1C1917"/>
</svg>
