<svg width="30" height="26" viewBox="0 0 30 26" fill="none" xmlns="http://www.w3.org/2000/svg">
<path d="M27.6276 0C27.5075 3.61757 26.7196 5.94228 23.8274 8.34524C25.7801 7.32299 27.7858 6.25789 29.1338 4.45636L29.3992 4.5633C27.9986 7.64103 26.1296 9.70818 23.1353 11.3801C26.1978 10.659 27.5234 10.2427 30 8.30906C28.9487 10.1211 27.3915 11.4939 25.5712 12.5192C25.0197 12.8298 24.4177 13.0985 23.8882 13.4098L23.8325 13.443C25.8593 13.6221 26.9903 13.5671 28.8679 12.8649C27.21 14.3372 25.2128 14.8835 23.0227 15.0387C24.5646 15.8512 25.7986 16.127 27.4724 16.4126C25.4391 16.7279 23.789 16.6965 21.7508 16.5445C22.904 17.7627 23.4835 17.9543 25.0555 18.4855C23.3984 18.5337 22.2551 18.3234 20.7697 17.5366C21.399 18.9389 21.6811 19.3623 22.8292 20.3613C21.3917 19.8818 20.776 19.4173 19.6759 18.3721C20.0254 19.7003 20.1552 20.0458 20.9509 21.1612C19.6157 20.3292 18.8533 19.5353 18.0961 18.1949C18.0099 18.7836 17.8837 19.7106 18.0403 20.2835C18.2051 20.8864 18.3935 21.275 18.4684 21.9282C18.3796 21.9895 18.3597 21.9901 18.2566 22.0142C18.2028 22.3559 18.5044 22.998 18.6422 23.3432C19.5217 23.265 21.63 22.9706 21.0877 24.5141C20.8787 24.5486 20.7535 24.362 20.4866 24.1895L20.3756 24.2422C20.3165 24.4953 20.2754 24.6424 20.1912 24.8884C19.7606 24.7926 18.2079 23.0331 18.3816 25.0066C18.0813 24.8264 17.9391 24.7468 17.6804 24.5162C17.4509 23.9406 17.7945 23.9828 17.8887 23.4177C17.7728 23.0055 17.7099 22.6796 17.3677 22.4067C17.332 22.3995 17.1759 22.3692 17.1459 22.3577C17.0785 22.3321 16.5576 21.074 16.42 20.8437C16.2171 22.2733 16.2658 23.0097 17.0605 24.2693C16.5441 24.1099 16.3311 24.0347 15.8469 23.8016C15.3414 24.5671 15.1611 25.1243 14.9598 26C14.6711 25.0082 14.5348 24.6601 14.0267 23.7603C13.5949 24.0363 13.2988 24.1171 12.822 24.2545C13.6415 23.0298 13.6535 22.264 13.4526 20.8745C13.2572 21.1889 12.7735 22.3878 12.7105 22.437C12.5513 22.3696 12.6329 22.3773 12.4657 22.4119C12.2074 22.7133 12.1079 23.0727 11.9653 23.4488C12.0833 23.6434 12.2749 23.9483 12.2858 24.1758C12.301 24.4919 11.8829 24.862 11.5754 24.8773C11.3758 24.5994 11.6414 24.213 11.3197 24.1213C10.7446 23.9572 10.2294 24.5914 9.74486 24.8703C9.54925 24.7989 9.65455 24.5311 9.45824 24.1613L9.34964 24.1664C9.19607 24.3273 9.10842 24.456 8.89781 24.5192L8.77317 24.4449C8.24106 22.9744 10.4501 23.2567 11.2345 23.3619C11.3274 23.0443 11.7498 22.202 11.7077 22.026C11.3647 21.9749 11.3115 21.8911 11.4529 21.5354C11.9423 20.3039 11.9888 19.4921 11.7853 18.2022C11.0453 19.5764 10.2752 20.2663 8.98133 21.1039C9.7375 19.9652 9.85647 19.7049 10.1958 18.3817C9.04291 19.4755 8.50393 19.856 7.00391 20.3711C8.18431 19.4348 8.45881 18.9189 9.10779 17.5788C7.53112 18.3313 6.4664 18.5076 4.75227 18.5137C6.44391 17.8823 6.79085 17.9219 8.14003 16.5558C6.05654 16.7054 4.42803 16.699 2.36121 16.4269C4.31145 16.1089 5.15113 15.8322 6.94415 15.0318C4.50937 14.8957 2.94602 14.3693 1.03004 12.9252C2.97937 13.5279 3.97417 13.6521 6.05437 13.4353C3.8351 12.3154 1.04448 10.7562 0 8.36469C2.11179 10.1696 4.056 10.776 6.72563 11.3744C3.65273 9.60207 1.24969 7.10661 0.203597 3.67938C1.85334 6.11387 3.40114 6.96946 5.99516 8.32455C5.82975 8.18338 5.667 8.03907 5.50719 7.89172C3.00543 5.56542 2.36941 3.29161 2.25381 0.0420809C3.18493 2.2645 3.64334 3.19981 5.43558 4.92072C5.29812 3.75611 5.47082 2.70983 5.63883 1.56196C5.88377 3.46161 6.70622 4.80795 8.14416 6.08463C8.41593 6.32588 8.67341 6.55468 9.05265 6.57364C9.72748 6.21081 9.08376 4.40664 8.8824 3.84013C11.9426 4.99988 10.9177 7.89679 10.82 10.3373C10.7596 11.8462 11.3654 13.488 12.449 14.5486C12.6047 14.7008 12.6449 14.7477 12.8524 14.7449C13.038 14.3084 12.741 14.1843 12.7183 13.8179C13.2212 13.2373 13.8155 12.8186 13.7407 11.9283C13.7218 11.7037 13.6201 11.3532 13.4463 11.2017C13.0649 11.1776 12.62 11.3027 12.2365 11.3846C12.2039 10.4212 12.3612 10.0482 13.2337 9.47006C14.381 8.70995 15.4197 8.93404 16.6671 9.18778L16.634 9.27097C16.176 10.4492 16.2857 10.9154 16.791 12.0257C15.6604 13.0553 16.6498 13.2503 17.1644 13.8723C17.1861 13.8984 16.8868 14.4886 17.0186 14.7935C17.4055 14.6949 17.7651 14.1918 17.9927 13.88C19.0424 12.4421 19.1766 10.7641 18.9566 9.05272C18.6613 6.75537 18.5632 4.92787 20.9888 3.79604C20.8 4.38609 20.1882 6.16679 20.8325 6.5733C21.1322 6.57267 21.3503 6.43761 21.5693 6.23789C23.0912 4.84954 24.0279 3.60521 24.2037 1.56952C24.4571 2.69295 24.5681 3.83583 24.4208 4.97926C26.2676 3.05183 26.6636 2.43088 27.6276 0Z" fill="#BABAB9"/>
</svg>
