<svg width="64" height="64" viewBox="0 0 64 64" fill="none" xmlns="http://www.w3.org/2000/svg">
<path d="M64 32C64 49.6731 49.6731 64 32 64C14.3269 64 0 49.6731 0 32C0 14.3269 14.3269 0 32 0C49.6731 0 64 14.3269 64 32Z" fill="#FBF6EB"/>
<path d="M11.8154 56.8323C13.5471 48.3101 21.9254 41.8462 32 41.8462C42.0746 41.8462 50.4529 48.3101 52.1847 56.8323C46.6783 61.3136 39.6529 64 32 64C24.3471 64 17.3217 61.3136 11.8154 56.8323Z" fill="#DFAC4C"/>
<path d="M41.8462 27.6923C41.8462 33.2435 37.346 37.7436 31.7949 37.7436C26.2437 37.7436 21.7436 33.2435 21.7436 27.6923C21.7436 22.1411 26.2437 17.641 31.7949 17.641C37.346 17.641 41.8462 22.1411 41.8462 27.6923Z" fill="#DFAC4C"/>
</svg>
